<svg width="53" height="56" viewBox="0 0 53 56" fill="none" xmlns="http://www.w3.org/2000/svg">
<path fill-rule="evenodd" clip-rule="evenodd" d="M52.6101 45.9851L44.5383 32.7044C45.3081 31.6011 45.9661 30.4276 46.5054 29.1897C47.6059 26.6664 48.1638 24.0022 48.1638 21.2704C48.1638 9.85979 38.3922 0.576172 26.3806 0.576172C14.3697 0.576172 4.59815 9.85979 4.59815 21.2704C4.59815 25.4906 5.93556 29.4194 8.22777 32.6954L0.151868 45.9851C-0.0773343 46.3622 -0.0449806 46.8345 0.234571 47.1805C0.513758 47.5261 0.985251 47.6777 1.42821 47.5648L11.9677 44.8753L14.8897 54.9553C15.0113 55.3741 15.3856 55.6825 15.8394 55.7377C15.8874 55.7434 15.9358 55.7463 15.9838 55.7463C16.3847 55.7463 16.7615 55.544 16.9655 55.2076L25.0381 41.9238C25.4823 41.9497 25.9296 41.9643 26.3806 41.9643C26.8301 41.9643 27.2776 41.9505 27.7238 41.9244L35.7965 55.2074C36.0004 55.544 36.3766 55.7462 36.7782 55.7462C36.827 55.7462 36.8767 55.7431 36.927 55.7367C37.382 55.6797 37.7559 55.368 37.8742 54.9468L40.6924 44.9309L51.3419 47.5668C51.7849 47.6763 52.2527 47.5228 52.5304 47.1769C52.8071 46.8316 52.8387 46.3614 52.6101 45.9851ZM16.3569 51.8998L13.8559 43.2711C13.6905 42.7001 13.0707 42.3632 12.4681 42.5169L3.48704 44.8085L9.70751 34.572C12.9325 38.2139 17.4511 40.7896 22.5852 41.6502L16.3569 51.8998ZM38.7918 43.3394C38.9532 42.767 39.5701 42.4256 40.1736 42.5753L49.2895 44.8312L43.0596 34.5801C42.6555 35.0366 42.2311 35.478 41.7836 35.9029C41.3405 36.3239 40.6223 36.3239 40.1792 35.9029C39.737 35.4821 39.737 34.7997 40.1799 34.3789C40.9331 33.6632 41.6167 32.8982 42.2284 32.0928C42.2573 32.0478 42.2904 32.0053 42.3273 31.9642C44.6456 28.8579 45.8953 25.1556 45.8953 21.2702C45.8953 11.0477 37.1414 2.73108 26.3805 2.73108C15.6203 2.73108 6.86644 11.0477 6.86644 21.2702C6.86644 31.4928 15.6203 39.8094 26.3805 39.8094C28.7625 39.8094 31.099 39.4014 33.3262 38.5958C33.9115 38.384 34.5667 38.663 34.7896 39.2192C35.0124 39.7752 34.7189 40.3979 34.1327 40.6099C32.8438 41.0762 31.5206 41.4222 30.1748 41.6481L36.3903 51.8752L38.7918 43.3394Z" fill="#4A90E2"/>
<path fill-rule="evenodd" clip-rule="evenodd" d="M40.6047 32.8456C43.4055 29.852 45.103 25.9422 45.103 21.6697C45.103 12.2749 36.8953 4.63184 26.8062 4.63184C16.7177 4.63184 8.51001 12.2749 8.51001 21.6697C8.51001 25.9422 10.2075 29.852 13.0077 32.8456C13.0578 32.9125 13.1156 32.9735 13.1817 33.0288C16.5342 36.512 21.3997 38.7075 26.8062 38.7075C32.2134 38.7075 37.0787 36.512 40.4313 33.0288C40.4975 32.9735 40.5552 32.9125 40.6047 32.8456ZM26.8061 6.76136C35.6345 6.76136 42.8167 13.4495 42.8167 21.6702C42.8167 24.9221 41.6925 27.9337 39.787 30.3868C38.396 28.5093 36.5481 26.949 34.4057 25.8467C35.5946 24.3705 36.2995 22.5372 36.2995 20.5544V16.6785V16.6686V16.6667C36.2995 11.7918 32.0415 7.82587 26.8061 7.82587C26.1747 7.82587 25.663 8.30285 25.663 8.89037C25.663 9.47858 26.1747 9.95487 26.8061 9.95487C30.4902 9.95487 33.5358 12.5433 33.9605 15.8692C32.6292 16.0427 30.8958 15.5701 29.7428 14.3004C29.3586 13.8768 28.6881 13.799 28.2039 14.1226C26.1061 15.523 22.2425 17.0746 19.6315 16.0415C19.7364 15.0046 20.0999 14.0032 20.7 13.1148C21.0356 12.6168 20.875 11.9592 20.341 11.6465C19.806 11.3334 19.1005 11.4832 18.7646 11.9808C17.8149 13.3869 17.3127 15.0077 17.3127 16.6667V20.5544C17.3127 22.5372 18.018 24.3705 19.2064 25.8467C17.0649 26.949 15.2161 28.5093 13.8258 30.387C11.9206 27.9337 10.7959 24.9221 10.7959 21.6702C10.7963 13.4495 17.9785 6.76136 26.8061 6.76136ZM21.5705 18.5151C20.9031 18.5151 20.2403 18.444 19.5989 18.2822V20.5542C19.5989 22.4302 20.4316 24.1283 21.7691 25.3474C21.7729 25.3506 21.9089 25.4702 21.918 25.4798C23.2041 26.5869 24.9215 27.2655 26.8068 27.2655C28.6911 27.2655 30.4082 26.5876 31.6937 25.4809C31.7043 25.4692 31.8399 25.3506 31.8441 25.3472C33.1813 24.1283 34.0135 22.4302 34.0135 20.5542V18.0074C32.1894 18.1686 30.1968 17.56 28.721 16.3586C26.8835 17.423 24.186 18.5151 21.5705 18.5151ZM22.2034 28.2824C22.7777 28.5806 23.3881 28.825 24.0275 29.0074L22.2034 30.3408V28.2824ZM31.4093 30.3408V28.2824C30.835 28.5806 30.2246 28.825 29.5852 29.0074L31.4093 30.3408ZM15.3626 32.0853C16.5034 30.3789 18.0721 28.9466 19.9173 27.9196V32.5291C19.9173 32.9358 20.167 33.3076 20.5603 33.4861C20.7191 33.5581 20.8899 33.5936 21.06 33.5936C21.3118 33.5936 21.5603 33.5159 21.7657 33.3662L25.663 30.5181V36.5404C21.6391 36.2748 18.0219 34.6181 15.3626 32.0853ZM27.9492 30.5178V36.5401C31.9739 36.2744 35.5911 34.6178 38.2504 32.085C37.1096 30.3786 35.5409 28.9463 33.6957 27.9196V32.5287C33.6957 32.9359 33.446 33.3073 33.0527 33.4858C32.6599 33.6638 32.1911 33.6174 31.8473 33.3658L27.9492 30.5178Z" fill="#4A90E2"/>
<path fill-rule="evenodd" clip-rule="evenodd" d="M21.2621 10.3121C21.4311 10.3121 21.6013 10.2635 21.7488 10.1619L21.7739 10.1451C22.1506 9.88833 22.239 9.38823 21.9714 9.02677C21.7035 8.66583 21.1811 8.58128 20.8046 8.83775L20.7739 8.85857C20.3979 9.11659 20.3114 9.61772 20.5809 9.9775C20.7445 10.1961 21.0012 10.3121 21.2621 10.3121Z" fill="#4A90E2"/>
<path fill-rule="evenodd" clip-rule="evenodd" d="M23.8183 21.6705H23.8378C24.3028 21.6705 24.6791 21.3074 24.6791 20.8592C24.6791 20.4111 24.3028 20.0479 23.8378 20.0479H23.8183C23.3537 20.0479 22.9771 20.4111 22.9771 20.8592C22.9771 21.3074 23.3537 21.6705 23.8183 21.6705Z" fill="#4A90E2"/>
<path fill-rule="evenodd" clip-rule="evenodd" d="M29.7752 21.6705H29.7949C30.2594 21.6705 30.6361 21.3074 30.6361 20.8592C30.6361 20.4111 30.2594 20.0479 29.7949 20.0479H29.7752C29.3106 20.0479 28.9341 20.4111 28.9341 20.8592C28.9341 21.3074 29.3106 21.6705 29.7752 21.6705Z" fill="#4A90E2"/>
<path fill-rule="evenodd" clip-rule="evenodd" d="M37.8199 36.4261L37.7921 36.4447C37.4171 36.7041 37.3315 37.2056 37.6023 37.5644C37.7662 37.7814 38.0225 37.8971 38.2821 37.8971C38.4513 37.8971 38.6226 37.8475 38.7703 37.7454L38.7979 37.7265C39.1731 37.4672 39.2587 36.9656 38.9879 36.6071C38.7167 36.2482 38.1946 36.1668 37.8199 36.4261Z" fill="#4A90E2"/>
</svg>
