<svg width="60" height="60" viewBox="0 0 60 60" fill="none" xmlns="http://www.w3.org/2000/svg">
<g clip-path="url(#clip0)">
<path d="M59.7213 54.4714L47.1098 33.9741C46.765 33.4137 46.1662 33.0791 45.5082 33.0791C44.8503 33.0791 44.2516 33.4138 43.907 33.9741L42.2696 36.6353C42.0149 37.0493 42.144 37.5915 42.558 37.8463C42.9723 38.1009 43.5143 37.9719 43.7692 37.5579L45.4065 34.8966C45.4152 34.8825 45.4416 34.8396 45.5085 34.8396C45.5754 34.8396 45.6019 34.8825 45.6105 34.8966L58.222 55.3939C58.2321 55.4102 58.2588 55.4537 58.2246 55.515C58.1904 55.5763 58.1393 55.5763 58.1201 55.5763H51.1357L31.6014 23.8281C31.4259 23.5428 31.1845 23.3166 30.9032 23.1627C30.9035 23.1628 30.9039 23.163 30.9041 23.1632V17.1889C31.6366 17.3876 32.3502 17.4724 33.0483 17.4724C35.0559 17.4724 36.936 16.7746 38.7752 16.0918C41.3238 15.1458 43.7311 14.2522 46.3348 15.2964C46.6705 15.431 47.0499 15.3905 47.3496 15.1877C47.6497 14.9848 47.8288 14.6474 47.8288 14.2853V4.34109C47.8288 3.90281 47.5687 3.50894 47.1667 3.33785C43.8616 1.92843 40.9643 3.00375 38.1625 4.04367C35.5377 5.01797 33.0586 5.93824 30.3592 4.73179C30.0867 4.61004 29.7714 4.63465 29.521 4.79683C29.2707 4.95914 29.1197 5.23711 29.1197 5.53547V5.56816C29.1046 5.63367 29.0959 5.70152 29.0959 5.7716V23.1632C28.815 23.317 28.5738 23.5432 28.3985 23.8281L19.1244 38.9011L16.093 33.9742C15.7482 33.4138 15.1495 33.0792 14.4915 33.0792C13.8336 33.0792 13.2349 33.4138 12.8902 33.9742L0.278555 54.4714C-0.0780466 55.0509 -0.093281 55.78 0.238594 56.374C0.570469 56.968 1.19941 57.337 1.87992 57.337H58.1199C58.8005 57.337 59.4294 56.968 59.7613 56.374C60.0933 55.78 60.0779 55.0508 59.7213 54.4714ZM30.8803 6.78527C33.73 7.56691 36.2894 6.61687 38.7752 5.69414C41.2344 4.78125 43.5643 3.91664 46.0683 4.79859V13.3515C43.2101 12.5678 40.648 13.5189 38.1626 14.4414C35.7075 15.3526 33.3798 16.2166 30.8803 15.3374V6.78527ZM10.9315 55.5764L13.9515 50.668C14.2063 50.254 14.0771 49.7118 13.6631 49.457C13.249 49.2023 12.7069 49.3314 12.4521 49.7454L8.86441 55.5764H1.88004C1.86082 55.5764 1.80973 55.5764 1.77551 55.5151C1.74129 55.4538 1.76789 55.4105 1.77809 55.3941L14.3897 34.8968C14.3984 34.8827 14.4247 34.8398 14.4916 34.8398C14.5586 34.8398 14.5849 34.8827 14.5936 34.8968L18.0909 40.5809L14.5989 46.2564C14.3441 46.6704 14.4732 47.2126 14.8873 47.4674C15.3015 47.7221 15.8436 47.593 16.0983 47.179L29.898 24.7506C29.9067 24.7365 29.9331 24.6936 30 24.6936C30.0668 24.6936 30.0932 24.7365 30.1019 24.7506L49.0685 55.5764H10.9315V55.5764Z" fill="#4A90E2"/>
</g>
<defs>
<clipPath id="clip0">
<rect width="60" height="60" fill="white"/>
</clipPath>
</defs>
</svg>
