<svg width="54" height="52" viewBox="0 0 54 52" fill="none" xmlns="http://www.w3.org/2000/svg">
<path fill-rule="evenodd" clip-rule="evenodd" d="M39.9283 47.7401C39.5948 47.188 38.8583 47 38.2827 47.3203L38.2364 47.346C37.6613 47.6665 37.4656 48.3741 37.7992 48.9266C38.0225 49.2963 38.4265 49.5029 38.8417 49.5029C39.0466 49.5029 39.2547 49.4523 39.4448 49.3464L39.4911 49.3207C40.0662 49.0003 40.2619 48.2926 39.9283 47.7401Z" fill="#4A90E2"/>
<path fill-rule="evenodd" clip-rule="evenodd" d="M33.4762 1.27616C40.3352 3.05435 46.0679 7.31027 49.6184 13.2602C52.8375 18.6546 53.9245 24.9874 52.6795 31.0915C51.4461 37.1372 48.0214 42.5515 43.0365 46.3369C42.585 46.6797 41.9323 46.6035 41.5782 46.1668C41.2239 45.7302 41.3027 45.0986 41.754 44.756C48.6587 39.5127 51.9253 31.1747 50.8858 23.1144C50.7458 23.6921 50.4527 24.2133 50.0271 24.6252L49.3549 25.2755C49.1582 25.4661 48.893 25.5699 48.6206 25.5699C48.5457 25.5699 48.4704 25.562 48.3956 25.5461C48.0493 25.4717 47.7659 25.2313 47.6446 24.9085L46.2325 21.1517C46.2107 21.0937 46.1788 21.0408 46.1375 20.9941L44.8579 19.5446C44.7572 19.4305 44.6104 19.365 44.4553 19.365H43.9594L44.0146 19.4453C44.2894 19.844 44.2349 20.3745 43.8849 20.7133C42.5146 22.0388 40.8293 23.0825 39.0111 23.7313L38.2284 24.0105C37.7387 24.1857 37.1901 23.9809 36.9484 23.5327L34.2605 18.5514C34.183 18.4078 34.1425 18.2482 34.1425 18.0863V17.382L32.6923 16.0427L31.1629 15.5226C30.6217 15.3386 30.3372 14.7651 30.5274 14.2414C30.7175 13.7179 31.3102 13.4423 31.8516 13.6266L33.592 14.2183C33.7311 14.2656 33.8582 14.341 33.9649 14.4395L35.8982 16.2252C36.1036 16.4147 36.2197 16.6775 36.2197 16.952V17.8397L38.3667 21.8187C39.6132 21.3642 40.7838 20.6904 41.7959 19.8483L41.6374 19.6181C41.329 19.1707 41.3004 18.598 41.5626 18.1239C41.8249 17.6499 42.333 17.3552 42.8891 17.3552H44.4553C45.2189 17.3552 45.9412 17.6773 46.4373 18.2392L47.7169 19.6886C47.9203 19.9189 48.0777 20.1801 48.1846 20.4649L48.9019 22.3735C48.9023 22.3655 48.9025 22.3574 48.9026 22.3493C48.9154 21.6045 49.2522 20.8929 49.8269 20.3967L50.2672 20.0169C49.7278 18.0378 48.9165 16.1028 47.8197 14.2648C43.7021 7.36454 36.5163 3.22348 28.8824 2.52091L25.8948 6.14673C25.7729 6.29456 25.6105 6.40611 25.4262 6.46862L18.7054 8.74828L17.1812 12.3228L18.7305 14.4225C19.58 13.0959 21.0958 12.253 22.7511 12.253H23.3416C23.9151 12.253 24.3802 12.703 24.3802 13.2579C24.3802 13.8127 23.9151 14.2627 23.3416 14.2627H22.7511C21.6362 14.2627 20.634 14.9449 20.2574 15.9602L20.2318 16.0292C20.728 15.9753 21.2295 15.9578 21.6832 15.9422C21.9721 15.9324 22.2451 15.923 22.461 15.9055C22.841 15.8743 24.767 15.7813 25.3473 16.9688C25.4501 17.1792 25.5482 17.5162 25.4398 17.9361L25.4599 17.949C25.7816 18.1566 26.3045 18.4937 26.6848 18.6703C26.7974 18.4046 26.9897 18.2393 27.0546 18.1889C27.3003 17.9984 27.6313 17.8658 28.1617 17.7455C28.3597 17.7005 28.5672 17.7129 28.7585 17.7812C28.9867 17.8627 29.3327 17.9534 29.6992 18.0493L29.7 18.0495C30.7897 18.3351 32.0246 18.6587 32.6798 19.3304C33.4088 20.0779 33.837 21.1503 34.2148 22.0964L34.215 22.0969C34.3578 22.4545 34.4928 22.7923 34.6278 23.0714C34.702 23.2248 34.7752 23.3827 34.8494 23.5427L34.8494 23.5427L34.8495 23.5429L34.8539 23.5524L34.854 23.5525C35.2342 24.3731 35.6274 25.2214 36.27 25.6279C36.4155 25.7199 36.8722 25.7878 37.1752 25.8328L37.1753 25.8328L37.1766 25.833C37.9438 25.9467 38.8987 26.0884 39.2744 26.9316C39.6576 27.7915 39.0384 28.659 38.8347 28.9443L38.8347 28.9444C38.3694 29.596 37.7676 30.1383 37.1855 30.6627C35.8427 31.8726 35.2873 32.5066 35.6048 33.4978C35.9822 34.6758 36.3385 35.7884 34.955 37.2449C34.8732 37.3309 34.7971 37.4095 34.7257 37.4829L34.7247 37.4839L34.7247 37.4839C34.3151 37.906 34.1912 38.0337 34.0208 38.553C33.7964 39.237 33.45 39.6145 33.1716 39.9178L33.1712 39.9182L33.1708 39.9186L33.1708 39.9186C33.0325 40.0694 32.9233 40.1885 32.8305 40.3421C32.77 40.4423 32.7383 40.5955 32.698 40.7895L32.6977 40.7911C32.6167 41.1827 32.5056 41.7189 32.0548 42.2543C31.3371 43.107 29.7746 44.4521 28.2773 44.4522C27.9697 44.4523 27.6651 44.3955 27.3709 44.2661C26.809 44.0188 26.1089 43.4048 25.175 40.7237C25.0591 40.3905 24.8823 40.0137 24.6949 39.6144L24.6948 39.6142L24.6947 39.6142L24.6943 39.6133C24.1168 38.3826 23.4622 36.9875 23.9318 35.581C23.9589 35.4994 23.9859 35.4198 24.0124 35.3419C24.3215 34.4304 24.4626 34.0144 24.1386 33.2633C24.0876 33.145 23.922 32.9687 23.762 32.7984L23.7619 32.7983C23.4399 32.4554 23.0391 32.0286 22.8841 31.4111C22.7873 31.0251 22.7894 30.6871 22.7914 30.4153C22.7942 29.9883 22.7814 29.9645 22.6425 29.8386C22.3568 29.5799 22.0747 29.6012 21.1842 29.8144C20.8613 29.8917 20.5275 29.9716 20.1696 30.0122C17.9725 30.2623 15.914 29.4078 14.6654 27.727C13.3741 25.9887 13.1772 23.669 14.1517 21.6732C14.595 20.766 15.2188 20.0867 15.8222 19.43C15.9375 19.3045 16.0538 19.1779 16.1701 19.0483C16.3037 18.8994 16.497 18.634 16.7017 18.3528L16.702 18.3524C17.1691 17.7111 17.5602 17.1945 17.9619 16.8399L15.1566 13.0379C14.9487 12.7561 14.9054 12.3909 15.0418 12.0708L16.9626 7.56574C17.0754 7.30103 17.2998 7.09541 17.5791 7.00074L24.4569 4.66792L26.3116 2.4169C22.2358 2.45599 18.1167 3.47774 14.3422 5.58616C13.3135 6.16069 12.3455 6.79824 11.4377 7.48876C12.2759 7.99415 12.9461 8.74406 13.3298 9.64481C13.9803 11.172 13.6479 12.939 12.4832 14.1467L11.3434 15.3284L8.51571 20.1045C8.44144 20.2299 8.34006 20.3383 8.21853 20.4225L6.39435 21.6845L7.66791 23.4918C7.86745 23.775 7.90412 24.1369 7.76514 24.4521C7.62616 24.7671 7.33085 24.9922 6.98154 25.0488C6.97292 25.0502 6.10123 25.1914 5.22498 25.3167C4.30104 25.4488 3.74149 25.5216 3.36351 25.5217C2.95218 25.5217 2.75628 25.4353 2.54002 25.2448C2.46482 25.1785 2.40062 25.1019 2.34879 25.0184C2.30693 24.9764 2.2389 24.9123 2.1344 24.8182C2.08101 25.7295 2.08184 26.6456 2.13804 27.562L4.78633 26.7297C5.1102 26.628 5.46492 26.6862 5.73592 26.8856L10.2593 30.213L12.6037 30.6562C13.5126 30.8282 14.3026 31.3701 14.7711 32.1431C15.2397 32.9161 15.3428 33.8476 15.0542 34.699C14.9774 34.9255 14.977 35.1652 15.0531 35.3919L15.3822 36.3717C15.9325 38.0112 15.0018 39.7783 13.3074 40.3109L12.859 40.4518L11.9284 45.1515C18.4829 49.9116 27.2561 51.2809 35.3601 48.2673C35.8953 48.0678 36.4963 48.3266 36.7022 48.8447C36.9081 49.3627 36.6409 49.9441 36.1055 50.1432C33.0609 51.2753 29.84 51.8427 26.6132 51.8427C23.6455 51.8427 20.6733 51.363 17.8261 50.4019C11.8196 48.374 6.7578 44.3179 3.57301 38.9808C0.0226042 33.031 -0.920543 26.0995 0.917244 19.4634C2.75503 12.8273 7.15396 7.28073 13.3035 3.84566C19.4532 0.410586 26.6174 -0.502022 33.4762 1.27616ZM9.19425 31.9532L4.91134 28.8026L2.35466 29.6062C2.79196 32.476 3.78413 35.3141 5.37211 37.975C6.67372 40.1563 8.27727 42.0677 10.1036 43.685L10.9344 39.4894C11.0055 39.1298 11.2733 38.8359 11.6334 38.7228L12.6656 38.3983C13.2707 38.208 13.6033 37.5768 13.4066 36.9913L13.0776 36.0117C12.8643 35.3768 12.8654 34.7058 13.0804 34.0714C13.1849 33.7628 13.1491 33.4387 12.9793 33.1586C12.8095 32.8784 12.5346 32.6899 12.2051 32.6276L9.62375 32.1395C9.46774 32.1101 9.32086 32.0464 9.19425 31.9532ZM10.9645 12.7747L9.74271 14.0413C9.68817 14.0979 9.6405 14.1604 9.60071 14.2275L6.82612 18.9143L4.36012 20.6203C3.9008 20.9381 3.788 21.5524 4.10605 22.0038L5.02832 23.3127C4.49671 23.3893 4.01963 23.4524 3.70241 23.4859C3.64144 23.4293 3.57766 23.3719 3.5117 23.3126C3.2648 23.0907 2.92171 22.7943 2.41025 22.3613C3.25379 17.3101 5.76954 12.5513 9.72619 8.91889C10.4838 9.14973 11.1056 9.69654 11.4093 10.4098C11.751 11.2119 11.5763 12.1403 10.9645 12.7747ZM21.7568 17.9507C20.9717 17.9776 19.8965 18.0145 19.4332 18.2667C19.2059 18.4035 18.6823 19.1225 18.4009 19.509L18.4005 19.5096C18.1648 19.8335 17.9419 20.1394 17.7393 20.3653C17.6225 20.4954 17.5057 20.6226 17.39 20.7487L17.3753 20.7648C16.8231 21.3657 16.3462 21.885 16.0305 22.5313C15.3784 23.8669 15.5019 25.4082 16.3527 26.5536C17.1661 27.6486 18.4688 28.1812 19.928 28.0158C20.1546 27.99 20.4102 27.9289 20.6807 27.8643L20.6859 27.863C21.573 27.6508 22.9133 27.3301 24.0628 28.371C24.878 29.1096 24.8727 29.903 24.8691 30.4281V30.4282C24.8678 30.6229 24.8666 30.791 24.9032 30.9366C24.9332 31.056 25.128 31.2634 25.2999 31.4464L25.3012 31.4478C25.5665 31.7305 25.8671 32.0508 26.056 32.489C26.6776 33.9301 26.3421 34.9199 25.9867 35.9681C25.9611 36.0431 25.9351 36.1199 25.9089 36.1985C25.6864 36.8647 26.1437 37.8395 26.5861 38.7822L26.5863 38.7826C26.7869 39.2101 26.9944 39.6521 27.1439 40.0817C27.7505 41.8236 28.152 42.327 28.2628 42.442C28.3599 42.4476 28.6449 42.4066 29.1331 42.1067C29.6584 41.7838 30.1701 41.3107 30.4444 40.9849C30.5649 40.8417 30.5998 40.6927 30.6614 40.3957C30.7238 40.094 30.8017 39.7183 31.0373 39.3282C31.2339 39.0026 31.4471 38.7703 31.6183 38.5838L31.6183 38.5837C31.8324 38.3505 31.9503 38.2221 32.0413 37.9448C32.3546 36.9902 32.7329 36.6004 33.212 36.107L33.212 36.107C33.2786 36.0384 33.3497 35.9653 33.4259 35.885C33.9852 35.2962 33.969 35.1789 33.6212 34.0927C32.8842 31.7924 34.4844 30.3505 35.7703 29.192L35.7712 29.1912C36.2756 28.7367 36.7529 28.3066 37.0882 27.8541C37.0086 27.8414 36.9303 27.8298 36.8619 27.8196L36.8611 27.8195C36.2961 27.7356 35.6558 27.6406 35.1335 27.3102C33.9811 26.5814 33.4378 25.409 32.9586 24.3747L32.9426 24.3402C32.877 24.1989 32.8123 24.0593 32.7466 23.9235C32.5811 23.5813 32.4336 23.2122 32.2775 22.8212L32.2771 22.8201C31.9681 22.0466 31.6181 21.1702 31.1691 20.7097C30.9162 20.4504 29.7714 20.1505 29.1564 19.9894L29.1428 19.9859C28.9687 19.9402 28.7988 19.8956 28.6369 19.8508C28.5634 19.9854 28.4645 20.097 28.359 20.1802C28.3482 20.1898 28.3378 20.2001 28.3273 20.2106C28.3232 20.2147 28.3191 20.2188 28.3149 20.2229L28.3132 20.2246C28.1249 20.4101 27.6878 20.8408 26.9041 20.7916C26.0396 20.7383 25.1194 20.1449 24.3077 19.6213L24.3076 19.6213C24.0205 19.4361 23.7494 19.2611 23.5545 19.1602C23.267 19.0114 23.0683 18.7406 23.0183 18.4287C22.9899 18.2514 23.0112 18.0728 23.0767 17.91C22.93 17.8989 22.7744 17.8968 22.6342 17.9081C22.3687 17.9296 22.0715 17.9399 21.7568 17.9507H21.7568Z" fill="#4A90E2"/>
<path fill-rule="evenodd" clip-rule="evenodd" d="M42.8044 33.1299L43.3274 35.0289C43.3787 35.2148 43.3757 35.4109 43.3188 35.5955L42.0401 39.7466C41.3589 41.9579 40.5253 43.069 39.4164 43.2435C39.3265 43.2577 39.2293 43.2664 39.1265 43.266C38.6002 43.266 37.9229 43.0389 37.2788 42.1555C36.376 40.9176 37.0198 39.4615 37.3659 38.6794L37.3767 38.655C37.4636 38.4585 37.4525 38.3502 37.4046 38.0378C37.3491 37.6776 37.2732 37.1842 37.4765 36.5605C37.804 35.555 38.6612 35.1565 39.2871 34.8656C39.5489 34.7439 39.8198 34.6179 39.9253 34.5011C40.113 34.293 40.2935 33.916 40.468 33.5515C40.5717 33.3348 40.679 33.1107 40.7981 32.8992C41.0107 32.5221 41.44 32.3089 41.8827 32.3587C42.3249 32.4096 42.6901 32.7152 42.8044 33.1299ZM39.1242 41.0389C39.3015 40.8056 39.6088 40.2793 39.956 39.1519L40.7787 36.4811C40.5911 36.5857 40.4052 36.6721 40.2361 36.7508L40.2321 36.7527C39.8484 36.9311 39.5937 37.0578 39.551 37.1884C39.4992 37.3473 39.514 37.4629 39.5554 37.7319L39.5555 37.7328C39.62 38.1529 39.7082 38.7279 39.3771 39.4765L39.3661 39.501L39.366 39.5012C39.1606 39.9658 38.8502 40.6677 39.0579 40.9527C39.0816 40.9853 39.1038 41.0138 39.1242 41.0389Z" fill="#4A90E2"/>
<path fill-rule="evenodd" clip-rule="evenodd" d="M28.6604 12.9549L28.5803 12.9276C27.9622 12.7168 27.2845 13.0333 27.0675 13.6355C26.8505 14.2379 27.1761 14.8972 27.7946 15.1084L27.8746 15.1357C28.0046 15.1801 28.1371 15.2011 28.2675 15.2011C28.7575 15.2011 29.2162 14.9033 29.3876 14.4278C29.6045 13.8254 29.279 13.166 28.6604 12.9549Z" fill="#4A90E2"/>
</svg>
