<svg width="64" height="64" viewBox="0 0 64 64" fill="none" xmlns="http://www.w3.org/2000/svg">
<g clip-path="url(#clip0)">
<path d="M54.3997 4.19917C54.3279 4.19917 54.2563 4.20637 54.1861 4.22077C52.0467 4.65133 49.8238 4.26384 47.9563 3.13484L47.488 2.85215C47.4586 2.83748 47.4283 2.82428 47.3974 2.81268C47.3664 2.79775 47.3355 2.78495 47.3035 2.77215C47.0667 2.68467 46.8064 2.68467 46.5696 2.77215C46.5376 2.78495 46.5066 2.79775 46.4757 2.81268C46.4448 2.82428 46.4146 2.83748 46.385 2.85215L45.9167 3.13484C44.0472 4.26651 41.8205 4.65413 39.6785 4.22077C39.1012 4.1029 38.5377 4.47532 38.42 5.05256C38.4056 5.12283 38.3984 5.19443 38.3984 5.26617V16.0082C38.3984 17.5213 38.8075 19.0064 39.5825 20.306C40.4787 21.8147 41.8309 22.9995 43.444 23.6897L46.5141 25.0125C46.7817 25.1277 47.0849 25.1277 47.3526 25.0125L50.4237 23.6897C52.0353 22.9987 53.386 21.8139 54.281 20.306C55.0564 19.0065 55.4659 17.5215 55.4661 16.0082V5.26617C55.4663 4.67693 54.9888 4.19917 54.3997 4.19917ZM45.8655 22.4106L44.2836 21.7289C43.0847 21.2148 42.0798 20.3332 41.4141 19.2114C40.8374 18.2435 40.5325 17.138 40.5319 16.0112V6.49171C42.3604 6.63732 44.1958 6.31544 45.8655 5.55619V22.4106ZM53.3327 16.008C53.332 17.1348 53.0272 18.2403 52.4505 19.2082C51.7847 20.33 50.7798 21.2116 49.581 21.7257L47.999 22.4116V5.55619C49.6688 6.31517 51.5043 6.63706 53.3327 6.49171V16.008Z" fill="white"/>
<path d="M60.6291 23.6064C60.41 23.0595 59.7891 22.7938 59.2422 23.0127C58.6953 23.2318 58.4295 23.8528 58.6486 24.3996C58.6567 24.4199 58.6655 24.4399 58.6749 24.4596C60.0847 27.6892 60.8083 31.1764 60.7998 34.7003C60.7998 35.2894 61.2774 35.767 61.8665 35.767C62.4556 35.767 62.9333 35.2894 62.9333 34.7003C62.9426 30.8827 62.1579 27.1047 60.6291 23.6064Z" fill="white"/>
<path d="M31.998 6.96533C23.8916 6.96347 16.1907 10.5106 10.9236 16.6726C10.5407 17.1204 10.5932 17.7937 11.041 18.1767C11.4887 18.5597 12.1621 18.5071 12.545 18.0594C17.4066 12.371 24.5151 9.09653 31.998 9.0988C32.5871 9.0988 33.0647 8.62117 33.0647 8.03207C33.0647 7.44296 32.5871 6.96533 31.998 6.96533Z" fill="white"/>
<path d="M63.025 43.6713L55.9259 36.5679C55.5327 36.178 55.091 35.8403 54.6117 35.5631C56.8761 33.679 57.1844 30.3159 55.3002 28.0517C53.4161 25.7873 50.0531 25.479 47.7888 27.3631C45.5244 29.2472 45.2162 32.6102 47.1003 34.8745C47.3559 35.1817 47.6452 35.4592 47.9627 35.7017C47.5807 35.9454 47.2259 36.2293 46.9045 36.5487L44.9652 38.3899C44.2864 39.0386 43.2111 39.0172 42.5587 38.3419L35.4563 31.2385C35.1546 30.9376 34.8232 30.6677 34.4675 30.4332C37.4151 28.4822 38.2232 24.5111 36.2723 21.5634C34.3213 18.6157 30.3502 17.8077 27.4025 19.7586C24.4549 21.7095 23.6468 25.6807 25.5977 28.6284C26.072 29.3451 26.6858 29.9589 27.4025 30.4332C27.0471 30.6684 26.7163 30.9385 26.4147 31.2396L20.9797 36.6799L16.1911 33.2408C15.9158 32.979 15.6178 32.7424 15.3004 32.5336C15.734 32.2381 16.1302 31.891 16.4802 31.4999H19.1972C19.7863 31.5002 20.2642 31.0228 20.2645 30.4337C20.2646 30.2679 20.2261 30.1046 20.1519 29.9563L17.7774 25.2062C17.5874 24.6175 17.3109 24.0602 16.9571 23.5527C16.898 23.4381 16.818 23.3352 16.7213 23.2498C14.549 20.4956 10.5553 20.0238 7.80115 22.1961C7.37446 22.5327 6.99257 22.9227 6.66521 23.3564C6.62321 23.403 6.58468 23.4525 6.55001 23.5047C6.18265 24.0237 5.8949 24.5947 5.69662 25.1987L3.31781 29.9542C3.05326 30.4806 3.26554 31.1217 3.79197 31.3863C3.93811 31.4598 4.09932 31.4986 4.26293 31.4999H6.98843C7.33659 31.8875 7.73061 32.2314 8.16184 32.524C7.81955 32.7525 7.5002 33.0136 7.20818 33.3037L0.975259 39.6071C-0.324955 40.9071 -0.325088 43.0151 0.974993 44.3154C1.59943 44.9398 2.44642 45.2906 3.32954 45.2906C4.11999 45.2878 4.88417 45.0065 5.48754 44.4959L3.2314 53.5631C3.08472 54.1337 3.42835 54.7152 3.99891 54.8619C4.08519 54.884 4.17386 54.8953 4.26293 54.8955H6.3964V58.0957C6.39533 59.8583 7.82329 61.2883 9.58606 61.2893C10.3784 61.2899 11.1427 60.9956 11.7301 60.4638C13.0368 61.6468 15.0552 61.5464 16.2382 60.2397C16.77 59.6523 17.0643 58.888 17.0637 58.0957V54.8955H19.1972C19.7863 54.8959 20.2643 54.4187 20.2647 53.8295C20.2647 53.7422 20.2542 53.6553 20.233 53.5706L17.6014 42.9854L19.0735 43.746C19.7074 44.0783 20.4157 44.2435 21.1312 44.226C21.1999 44.2303 21.2687 44.2285 21.3371 44.2207C21.384 44.2207 21.4331 44.2281 21.4597 44.2281C22.3427 44.2256 23.1892 43.8749 23.8151 43.2521L25.5976 41.4696V58.0957C25.5925 59.8566 27.0158 61.2883 28.7767 61.2934C29.5733 61.2956 30.3419 60.9997 30.9313 60.4638C32.238 61.6468 34.2564 61.5464 35.4394 60.2397C35.9712 59.6523 36.2655 58.888 36.2649 58.0957V41.4696L39.6785 44.8831C41.2831 46.5376 43.7333 47.0487 45.8655 46.1739V58.0957C45.8605 59.8566 47.2837 61.2883 49.0447 61.2934C49.8412 61.2956 50.6098 60.9997 51.1992 60.4638C52.5059 61.6468 54.5243 61.5464 55.7073 60.2397C56.2391 59.6523 56.5334 58.888 56.5329 58.0957V46.6998L58.3154 48.3799C59.6162 49.6801 61.7249 49.6796 63.0251 48.3787C63.649 47.7545 63.9996 46.9082 64 46.0256C64.0025 45.1421 63.6514 44.2943 63.025 43.6713ZM51.1992 28.2997C52.9666 28.2997 54.3994 29.7324 54.3994 31.4999C54.3994 33.2673 52.9666 34.7001 51.1992 34.7001C49.4317 34.7001 47.999 33.2673 47.999 31.4999C47.999 29.7324 49.4317 28.2997 51.1992 28.2997ZM26.6643 25.0995C26.6643 22.7429 28.5747 20.8326 30.9313 20.8326C33.2878 20.8326 35.1982 22.7429 35.1982 25.0995C35.1982 27.456 33.2878 29.3664 30.9313 29.3664C28.5747 29.3664 26.6643 27.456 26.6643 25.0995ZM7.48873 29.3664H5.99531L7.63381 26.0852C7.65794 26.0369 7.67861 25.987 7.69568 25.9358C7.82875 25.5111 8.02743 25.1098 8.28451 24.7464C8.30372 24.724 8.32398 24.7005 8.34212 24.676C9.72847 22.8025 12.371 22.4077 14.2446 23.7941C14.5806 24.0428 14.8779 24.34 15.1265 24.676C15.1436 24.6995 15.1628 24.7219 15.182 24.7443C15.4406 25.1078 15.64 25.5099 15.773 25.9358C15.79 25.987 15.8107 26.0369 15.8349 26.0852L17.4755 29.3664H15.9821C15.6463 29.3664 15.3302 29.5246 15.1287 29.7931C14.3932 30.7697 13.2698 31.3788 12.0501 31.4626C11.8314 31.4519 11.6159 31.4498 11.3972 31.4626C10.186 31.372 9.07256 30.7636 8.34212 29.7931C8.14064 29.5246 7.82449 29.3664 7.48873 29.3664ZM61.5184 46.8708C61.2945 47.095 60.9907 47.221 60.6739 47.2214C60.3466 47.2182 60.034 47.0847 59.8055 46.8502L56.202 43.4473C55.7756 43.0407 55.1004 43.0569 54.6939 43.4833C54.5027 43.6838 54.397 43.9511 54.3993 44.2281V58.0957C54.3993 58.6848 53.9216 59.1624 53.3325 59.1624C52.7434 59.1624 52.2658 58.6848 52.2658 58.0957V50.1144C52.2658 49.5253 51.7882 49.0477 51.1991 49.0477C50.61 49.0477 50.1323 49.5253 50.1323 50.1144V58.0957C50.1323 58.6848 49.6547 59.1624 49.0656 59.1624C48.4765 59.1624 47.9989 58.6848 47.9989 58.0957V44.2281C47.9991 43.639 47.5218 43.1613 46.9325 43.161C46.6604 43.1609 46.3984 43.2649 46.2003 43.4516C44.8212 44.8135 42.5992 44.7997 41.2372 43.4205C41.2202 43.4033 41.2034 43.3858 41.1867 43.3684L35.9597 38.1414C35.5473 37.7207 34.8719 37.7141 34.4512 38.1266C34.2451 38.3287 34.1297 38.6058 34.1313 38.8945V58.0957C34.1313 58.6848 33.6537 59.1624 33.0646 59.1624C32.4755 59.1624 31.9979 58.6848 31.9979 58.0957V45.2949C31.9979 44.7058 31.5202 44.2281 30.9311 44.2281C30.342 44.2281 29.8644 44.7058 29.8644 45.2949V58.0957C29.8644 58.6848 29.3868 59.1624 28.7977 59.1624C28.2086 59.1624 27.7309 58.6848 27.7309 58.0957V38.8945C27.7308 38.3054 27.2532 37.8279 26.6639 37.828C26.3811 37.828 26.11 37.9404 25.91 38.1403L22.3098 41.7405C22.104 41.9485 21.8294 42.074 21.5375 42.0936C21.5097 42.0936 21.4308 42.0808 21.3988 42.0787C21.3668 42.0765 21.3433 42.0787 21.3167 42.0787C21.2669 42.0749 21.2171 42.0749 21.1673 42.0787C21.1312 42.0787 21.0952 42.084 21.0606 42.0947C20.7125 42.0941 20.3695 42.0108 20.06 41.8515L16.494 40.0071C15.9707 39.7364 15.3271 39.9412 15.0564 40.4644C14.9375 40.6945 14.9061 40.9599 14.9685 41.2114L17.8402 52.762H15.997C15.4079 52.762 14.9303 53.2396 14.9303 53.8287V58.0957C14.9303 58.6848 14.4526 59.1624 13.8635 59.1624C13.2744 59.1624 12.7968 58.6848 12.7968 58.0957V53.8287C12.7968 53.2396 12.3192 52.762 11.7301 52.762C11.141 52.762 10.6633 53.2396 10.6633 53.8287V58.0957C10.6633 58.6848 10.1857 59.1624 9.5966 59.1624C9.00749 59.1624 8.52986 58.6848 8.52986 58.0957V53.8287C8.52986 53.2396 8.05223 52.762 7.46313 52.762H5.63155L8.50319 41.2072C8.64467 40.6353 8.29585 40.057 7.72395 39.9153C7.35579 39.8243 6.96683 39.9355 6.70255 40.2075L4.17546 42.8071C3.71103 43.2766 2.95392 43.2808 2.48442 42.8165C2.25721 42.5917 2.12933 42.2852 2.1296 41.9655C2.12773 41.6449 2.25547 41.3372 2.48375 41.1121L8.72201 34.8066C9.40552 34.1295 10.2997 33.7062 11.2566 33.6066C11.4155 33.6183 11.5766 33.6322 11.7345 33.6322C11.8923 33.6322 12.0545 33.6183 12.2124 33.6066C13.1692 33.7062 14.0634 34.1295 14.7469 34.8066C14.7877 34.848 14.832 34.8858 14.8792 34.9197L20.471 38.9349C20.8956 39.2392 21.478 39.1913 21.8471 38.8218L27.9275 32.7414C29.5928 31.0813 32.2871 31.0813 33.9524 32.7414L41.0654 39.8672C42.5346 41.3532 44.9249 41.384 46.4321 39.9365L48.3906 38.0772C50.0763 36.4674 52.7298 36.4674 54.4155 38.0772L61.5178 45.1795C61.9849 45.6465 61.9852 46.4036 61.5184 46.8708Z" fill="white"/>
</g>
<defs>
<clipPath id="clip0">
<rect width="64" height="64" fill="white"/>
</clipPath>
</defs>
</svg>
