<svg width="111" height="34" viewBox="0 0 111 34" fill="none" xmlns="http://www.w3.org/2000/svg">
<path fill-rule="evenodd" clip-rule="evenodd" d="M59.2289 2.2417H106.679C108.535 2.2417 110.053 3.66895 110.053 5.41348V17.7512C110.053 19.4957 108.535 20.923 106.679 20.923H59.2289C57.3731 20.923 55.855 19.4957 55.855 17.7512V5.41348C55.855 3.66895 57.3731 2.2417 59.2289 2.2417Z" fill="#FF0000"/>
<path fill-rule="evenodd" clip-rule="evenodd" d="M58.2217 14.5714V8.21973H59.4051V14.5714H58.2217Z" fill="white"/>
<path fill-rule="evenodd" clip-rule="evenodd" d="M60.5884 14.5714V8.21973H61.8192L64.3826 12.461V8.21973H65.5585V14.5714H64.2882L61.7638 10.4291V14.5714H60.5884Z" fill="white"/>
<path fill-rule="evenodd" clip-rule="evenodd" d="M66.5054 12.4663L67.7068 12.3476C67.7779 12.7537 67.9244 13.0508 68.1462 13.241C68.3671 13.4296 68.6646 13.5253 69.0404 13.5253C69.4372 13.5253 69.7376 13.4408 69.9385 13.2708C70.1408 13.1024 70.2414 12.905 70.2414 12.6791C70.2414 12.5333 70.1989 12.4105 70.1135 12.3089C70.0292 12.2059 69.8814 12.1175 69.6693 12.0431C69.5259 11.9916 69.1955 11.903 68.6815 11.7744C68.0197 11.6101 67.556 11.4069 67.2895 11.167C66.9136 10.8296 66.726 10.418 66.726 9.93207C66.726 9.61901 66.8143 9.3274 66.9907 9.05466C67.1671 8.78267 67.4221 8.57567 67.7536 8.43293C68.0869 8.29126 68.4864 8.21973 68.9566 8.21973C69.725 8.21973 70.3013 8.38848 70.69 8.72581C71.0771 9.06458 71.2807 9.51462 71.3005 10.0792L70.0666 10.1336C70.0139 9.81779 69.9001 9.59025 69.7264 9.45308C69.5526 9.31476 69.2924 9.24597 68.9451 9.24597C68.5864 9.24597 68.3045 9.31888 68.1021 9.46772C67.9714 9.56178 67.9059 9.68917 67.9059 9.8476C67.9059 9.99339 67.9672 10.1179 68.0894 10.2206C68.2447 10.3523 68.6233 10.4894 69.224 10.6308C69.8245 10.7739 70.2687 10.9213 70.5561 11.0726C70.8434 11.2255 71.0685 11.4329 71.2319 11.6973C71.3944 11.9618 71.4755 12.2877 71.4755 12.6747C71.4755 13.0264 71.379 13.3567 71.1839 13.6626C70.9888 13.9699 70.7142 14.1984 70.3584 14.3472C70.0027 14.4971 69.5585 14.5714 69.0276 14.5714C68.2548 14.5714 67.6611 14.3928 67.2471 14.0341C66.8324 13.6752 66.5851 13.1523 66.5054 12.4663Z" fill="white"/>
<path fill-rule="evenodd" clip-rule="evenodd" d="M72.4221 8.21973H73.6804V11.6021C73.6804 12.1386 73.6966 12.4875 73.7269 12.6459C73.7806 12.9018 73.9101 13.1068 74.1114 13.2611C74.3148 13.4167 74.5923 13.4939 74.9435 13.4939C75.3007 13.4939 75.5708 13.4212 75.7518 13.2742C75.9337 13.1287 76.0425 12.9484 76.0788 12.7363C76.1164 12.5223 76.1338 12.169 76.1338 11.6746V8.21973H77.3923V11.5002C77.3923 12.2504 77.359 12.7799 77.291 13.0897C77.2226 13.3995 77.0975 13.6596 76.9149 13.8733C76.7317 14.0858 76.4864 14.2559 76.1817 14.3823C75.8755 14.509 75.4748 14.5714 74.9811 14.5714C74.3862 14.5714 73.9348 14.5031 73.6268 14.3649C73.319 14.2267 73.0768 14.0478 72.8981 13.8281C72.7195 13.6087 72.6021 13.3777 72.5453 13.1361C72.4629 12.7782 72.4221 12.2504 72.4221 11.551V8.21973Z" fill="white"/>
<path fill-rule="evenodd" clip-rule="evenodd" d="M78.8123 14.5714V8.21973H81.386C82.0331 8.21973 82.5022 8.27752 82.7954 8.39118C83.0889 8.50508 83.324 8.7076 83.5004 8.99906C83.6762 9.29183 83.764 9.62459 83.764 10.0003C83.764 10.4765 83.63 10.8713 83.3635 11.1818C83.0972 11.4908 82.6967 11.6877 82.1656 11.7673C82.4303 11.9302 82.6488 12.1076 82.8208 12.3015C82.9928 12.4952 83.2238 12.8384 83.5156 13.332L84.2558 14.5714H82.794L81.9101 13.1889C81.596 12.6947 81.3817 12.3842 81.2661 12.2553C81.1505 12.1267 81.0277 12.0396 80.8981 11.9908C80.7684 11.9434 80.5642 11.92 80.2823 11.92H80.0356V14.5714H78.8123ZM80.0356 10.9053H80.9389C81.5256 10.9053 81.8919 10.8801 82.0387 10.8285C82.1835 10.7767 82.2976 10.6864 82.3811 10.5593C82.4627 10.4321 82.5053 10.274 82.5053 10.0831C82.5053 9.86864 82.4502 9.69684 82.3416 9.56553C82.233 9.43383 82.0791 9.35124 81.8807 9.31559C81.782 9.30206 81.4846 9.29468 80.9882 9.29468H80.0356V10.9053Z" fill="white"/>
<path fill-rule="evenodd" clip-rule="evenodd" d="M90.4094 14.5714H89.0616L88.5261 13.1279H86.0748L85.569 14.5714H84.2559L86.6445 8.21973H87.9536L90.4094 14.5714ZM88.129 12.0588L87.284 9.70142L86.4561 12.0588H88.129Z" fill="white"/>
<path fill-rule="evenodd" clip-rule="evenodd" d="M91.1194 14.5714V8.21973H92.3502L94.9141 12.461V8.21973H96.0895V14.5714H94.8193L92.295 10.4291V14.5714H91.1194Z" fill="white"/>
<path fill-rule="evenodd" clip-rule="evenodd" d="M101.257 12.2085L102.48 12.5892C102.292 13.26 101.981 13.7575 101.544 14.0837C101.109 14.4084 100.554 14.5714 99.8837 14.5714C99.0541 14.5714 98.3719 14.2927 97.8378 13.7362C97.3034 13.1781 97.0361 12.4159 97.0361 11.4507C97.0361 10.428 97.3047 9.63423 97.8419 9.06788C98.3789 8.50298 99.0846 8.21973 99.9606 8.21973C100.725 8.21973 101.346 8.44132 101.823 8.88644C102.109 9.14798 102.321 9.52546 102.464 10.0174L101.214 10.3109C101.141 9.99167 100.987 9.74006 100.751 9.5555C100.516 9.37091 100.231 9.27954 99.8969 9.27954C99.4338 9.27954 99.0571 9.44249 98.7691 9.77022C98.4808 10.0962 98.3366 10.6255 98.3366 11.3579C98.3366 12.1342 98.4779 12.6878 98.7629 13.0165C99.0468 13.3472 99.4165 13.5117 99.8707 13.5117C100.207 13.5117 100.495 13.4072 100.736 13.1967C100.978 12.9881 101.151 12.6577 101.257 12.2085Z" fill="white"/>
<path fill-rule="evenodd" clip-rule="evenodd" d="M103.663 14.5714V8.21973H108.278V9.29468H104.92V10.7027H108.045V11.7719H104.92V13.5008H108.397V14.5714H103.663Z" fill="white"/>
<path fill-rule="evenodd" clip-rule="evenodd" d="M6.86352 29.1426H5.61917L5.12523 28.2087H2.86233L2.39585 29.1426H1.18335L3.38812 25.0327H4.59674L6.86352 29.1426ZM4.75877 27.5168L3.97852 25.9916L3.21403 27.5168H4.75877Z" fill="#003896"/>
<path fill-rule="evenodd" clip-rule="evenodd" d="M7.57349 29.1426V25.0327H9.27675L10.2988 27.8363L11.3096 25.0327H13.017V29.1426H11.9601V25.9074L10.8409 29.1426H9.74519L8.6299 25.9074V29.1426H7.57349Z" fill="#003896"/>
<path fill-rule="evenodd" clip-rule="evenodd" d="M14.2004 29.1426V25.0327H18.3534V25.7284H15.3316V26.6392H18.1434V27.3314H15.3316V28.4496H18.4606V29.1426H14.2004Z" fill="#003896"/>
<path fill-rule="evenodd" clip-rule="evenodd" d="M19.4072 29.1426V25.0327H21.869C22.4883 25.0327 22.9372 25.0703 23.2171 25.144C23.4979 25.2174 23.7231 25.3485 23.8916 25.5372C24.06 25.7268 24.1437 25.9419 24.1437 26.1848C24.1437 26.4928 24.0155 26.7485 23.7609 26.9492C23.5059 27.1494 23.1233 27.2767 22.6147 27.3284C22.868 27.4336 23.0773 27.5484 23.2417 27.6737C23.4059 27.7991 23.6273 28.0211 23.9064 28.3406L24.614 29.1426H23.2163L22.3704 28.2479C22.0701 27.9283 21.865 27.7273 21.7545 27.6441C21.644 27.5608 21.5266 27.5043 21.4026 27.4728C21.2788 27.442 21.0831 27.4268 20.8133 27.4268H20.5776V29.1426H19.4072ZM20.5776 26.7705H21.4417C22.0027 26.7705 22.353 26.7543 22.4935 26.7205C22.6321 26.6873 22.7415 26.6289 22.821 26.5467C22.8993 26.4643 22.9396 26.3621 22.9396 26.2386C22.9396 26.0997 22.8873 25.9886 22.7832 25.9035C22.6795 25.8185 22.5327 25.7648 22.3426 25.742C22.248 25.7331 21.9635 25.7284 21.4889 25.7284H20.5776V26.7705Z" fill="#003896"/>
<path fill-rule="evenodd" clip-rule="evenodd" d="M25.0874 29.1426V25.0327H26.2708V29.1426H25.0874Z" fill="#003896"/>
<path fill-rule="evenodd" clip-rule="evenodd" d="M31.0718 27.4749L32.1877 27.7435C32.0168 28.2169 31.7322 28.5685 31.3335 28.7986C30.9361 29.0276 30.43 29.1427 29.8176 29.1427C29.0607 29.1427 28.4373 28.9458 27.9496 28.5529C27.4621 28.1596 27.2175 27.6213 27.2175 26.94C27.2175 26.218 27.4633 25.6575 27.9537 25.2578C28.4441 24.8589 29.0882 24.6592 29.8881 24.6592C30.5853 24.6592 31.1527 24.8157 31.5887 25.1295C31.8489 25.3144 32.0429 25.5809 32.1733 25.9282L31.0317 26.1354C30.9657 25.91 30.8249 25.7322 30.6094 25.6019C30.3955 25.4716 30.1353 25.407 29.8298 25.407C29.4071 25.407 29.0632 25.5224 28.7999 25.7534C28.5367 25.9838 28.4053 26.3574 28.4053 26.8743C28.4053 27.4223 28.5342 27.8132 28.7947 28.0453C29.0537 28.2787 29.391 28.3948 29.8057 28.3948C30.1126 28.3948 30.3756 28.3208 30.5961 28.1725C30.8171 28.0253 30.9749 27.792 31.0718 27.4749Z" fill="#003896"/>
<path fill-rule="evenodd" clip-rule="evenodd" d="M38.1045 29.1426H36.8603L36.3661 28.2087H34.1034L33.637 29.1426H32.4243L34.6292 25.0327H35.8381L38.1045 29.1426ZM35.9999 27.5168L35.2198 25.9916L34.4549 27.5168H35.9999Z" fill="#003896"/>
<path fill-rule="evenodd" clip-rule="evenodd" d="M38.8145 29.1426V25.0327H39.9283L42.2479 27.7771V25.0327H43.3112V29.1426H42.1619L39.8783 26.4625V29.1426H38.8145Z" fill="#003896"/>
<path fill-rule="evenodd" clip-rule="evenodd" d="M46.6248 29.1426V25.0327H47.8081V29.1426H46.6248Z" fill="#003896"/>
<path fill-rule="evenodd" clip-rule="evenodd" d="M48.9915 29.1426V25.0327H50.1052L52.425 27.7771V25.0327H53.4883V29.1426H52.3387L50.0552 26.4625V29.1426H48.9915Z" fill="#003896"/>
<path fill-rule="evenodd" clip-rule="evenodd" d="M55.8765 29.1426V25.7284H54.1982V25.0327H58.695V25.7284H57.0205V29.1426H55.8765Z" fill="#003896"/>
<path fill-rule="evenodd" clip-rule="evenodd" d="M59.405 29.1426V25.0327H63.558V25.7284H60.5359V26.6392H63.3483V27.3314H60.5359V28.4496H63.6652V29.1426H59.405Z" fill="#003896"/>
<path fill-rule="evenodd" clip-rule="evenodd" d="M64.6118 29.1426V25.0327H67.0738C67.6927 25.0327 68.1417 25.0703 68.4216 25.144C68.7024 25.2174 68.9274 25.3485 69.0964 25.5372C69.2648 25.7268 69.3479 25.9419 69.3479 26.1848C69.3479 26.4928 69.2203 26.7485 68.9653 26.9492C68.7107 27.1494 68.3279 27.2767 67.8195 27.3284C68.0728 27.4336 68.2817 27.5484 68.4459 27.6737C68.6107 27.7991 68.8321 28.0211 69.1111 28.3406L69.8186 29.1426H68.4208L67.5752 28.2479C67.2749 27.9283 67.0697 27.7273 66.9589 27.6441C66.8486 27.5608 66.7313 27.5043 66.6072 27.4728C66.483 27.442 66.2879 27.4268 66.018 27.4268H65.782V29.1426H64.6118ZM65.782 26.7705H66.6464C67.207 26.7705 67.5578 26.7543 67.6979 26.7205C67.8369 26.6873 67.946 26.6289 68.0254 26.5467C68.1041 26.4643 68.1446 26.3621 68.1446 26.2386C68.1446 26.0997 68.0915 25.9886 67.9879 25.9035C67.884 25.8185 67.7372 25.7648 67.547 25.742C67.4525 25.7331 67.1684 25.7284 66.6935 25.7284H65.782V26.7705Z" fill="#003896"/>
<path fill-rule="evenodd" clip-rule="evenodd" d="M70.5288 29.1426V25.0327H71.6426L73.9621 27.7771V25.0327H75.0256V29.1426H73.8761L71.5925 26.4625V29.1426H70.5288Z" fill="#003896"/>
<path fill-rule="evenodd" clip-rule="evenodd" d="M81.1792 29.1426H79.9353L79.4408 28.2087H77.1786L76.7118 29.1426H75.499L77.7041 25.0327H78.9126L81.1792 29.1426ZM79.0747 27.5168L78.2944 25.9916L77.5299 27.5168H79.0747Z" fill="#003896"/>
<path fill-rule="evenodd" clip-rule="evenodd" d="M82.6207 29.1426V25.7284H80.9424V25.0327H85.4392V25.7284H83.7646V29.1426H82.6207Z" fill="#003896"/>
<path fill-rule="evenodd" clip-rule="evenodd" d="M86.1492 29.1426V25.0327H87.3325V29.1426H86.1492Z" fill="#003896"/>
<path fill-rule="evenodd" clip-rule="evenodd" d="M88.0427 26.9276C88.0427 26.4857 88.1276 26.115 88.299 25.8151C88.4266 25.595 88.6009 25.3962 88.8214 25.2205C89.0426 25.0458 89.284 24.9155 89.5469 24.8309C89.8969 24.7155 90.2994 24.6592 90.7565 24.6592C91.5837 24.6592 92.2447 24.8573 92.7414 25.2538C93.2377 25.6495 93.4862 26.2007 93.4862 26.9064C93.4862 27.6072 93.239 28.1544 92.7468 28.5501C92.2539 28.945 91.5951 29.1427 90.772 29.1427C89.9373 29.1427 89.2733 28.9458 88.7812 28.5529C88.2885 28.1596 88.0427 27.6172 88.0427 26.9276ZM89.2094 26.8986C89.2094 27.389 89.3573 27.7619 89.6501 28.0149C89.944 28.2684 90.3162 28.3948 90.7685 28.3948C91.2191 28.3948 91.5902 28.2695 91.8802 28.017C92.1688 27.7658 92.314 27.389 92.314 26.8864C92.314 26.3896 92.1729 26.0191 91.8918 25.7738C91.6095 25.5295 91.2345 25.407 90.7685 25.407C90.3004 25.407 89.9244 25.5316 89.6379 25.7786C89.3533 26.0263 89.2094 26.3988 89.2094 26.8986Z" fill="#003896"/>
<path fill-rule="evenodd" clip-rule="evenodd" d="M94.4329 29.1426V25.0327H95.5464L97.8663 27.7771V25.0327H98.9297V29.1426H97.7801L95.4965 26.4625V29.1426H94.4329Z" fill="#003896"/>
<path fill-rule="evenodd" clip-rule="evenodd" d="M105.32 29.1426H104.076L103.582 28.2087H101.319L100.852 29.1426H99.6396L101.845 25.0327H103.053L105.32 29.1426ZM103.215 27.5168L102.435 25.9916L101.67 27.5168H103.215Z" fill="#003896"/>
<path fill-rule="evenodd" clip-rule="evenodd" d="M105.793 29.1426V25.0327H106.947V28.4439H109.817V29.1426H105.793Z" fill="#003896"/>
<path fill-rule="evenodd" clip-rule="evenodd" d="M4.54259 2.2417H51.7856C53.6334 2.2417 55.145 3.66891 55.145 5.41331V17.7514C55.145 19.4958 53.6334 20.923 51.7856 20.923H4.54259C2.69498 20.923 1.18335 19.4958 1.18335 17.7514V5.41331C1.18335 3.66891 2.69498 2.2417 4.54259 2.2417Z" fill="#003896"/>
<path fill-rule="evenodd" clip-rule="evenodd" d="M15.8571 16.8132H12.9023L11.7287 14.351H6.35455L5.24625 16.8132H2.3667L7.6032 5.97803H10.4731L15.8571 16.8132ZM10.8586 12.5269L9.00547 8.50596L7.19011 12.5269H10.8586Z" fill="white"/>
<path fill-rule="evenodd" clip-rule="evenodd" d="M17.2771 16.8132V5.97803H20.1172V16.8132H17.2771Z" fill="white"/>
<path fill-rule="evenodd" clip-rule="evenodd" d="M22.4839 16.8132V5.97803H25.324V16.8132H22.4839Z" fill="white"/>
<path fill-rule="evenodd" clip-rule="evenodd" d="M36.6306 13.0172L39.2878 13.6889C38.88 14.8723 38.2028 15.7507 37.2541 16.3262C36.308 16.8992 35.1032 17.1868 33.6445 17.1868C31.8415 17.1868 30.3579 16.6946 29.1972 15.7127C28.0363 14.7284 27.4541 13.3833 27.4541 11.6796C27.4541 9.87498 28.0395 8.4743 29.2064 7.47458C30.3739 6.4777 31.9078 5.97803 33.8122 5.97803C35.4732 5.97803 36.8239 6.36898 37.8612 7.15422C38.4812 7.61625 38.943 8.28236 39.2529 9.1506L36.5359 9.66782C36.3777 9.10517 36.0425 8.66099 35.53 8.33537C35.0205 8.00976 34.4005 7.84836 33.6733 7.84836C32.6672 7.84836 31.8479 8.13599 31.2214 8.71385C30.5953 9.28942 30.2821 10.2234 30.2821 11.5154C30.2821 12.8861 30.5889 13.8627 31.2088 14.4433C31.8259 15.0265 32.6292 15.3167 33.6158 15.3167C34.3468 15.3167 34.9728 15.1324 35.4982 14.7615C36.0236 14.3929 36.3997 13.8099 36.6306 13.0172Z" fill="white"/>
<path fill-rule="evenodd" clip-rule="evenodd" d="M40.9446 11.6493C40.9446 10.5438 41.1479 9.61755 41.5569 8.86811C41.8633 8.31783 42.2787 7.82055 42.8071 7.3814C43.335 6.94466 43.9131 6.61904 44.5409 6.407C45.3784 6.11936 46.3407 5.97803 47.4344 5.97803C49.4125 5.97803 50.9933 6.47267 52.1806 7.4644C53.3677 8.45394 53.9616 9.83203 53.9616 11.5963C53.9616 13.3479 53.371 14.716 52.1931 15.7053C51.0152 16.6921 49.4401 17.1868 47.4717 17.1868C45.475 17.1868 43.8881 16.6946 42.7099 15.7127C41.5318 14.7284 40.9446 13.3732 40.9446 11.6493ZM43.7348 11.5762C43.7348 12.8027 44.0879 13.7342 44.7877 14.3676C45.4909 15.001 46.3816 15.3167 47.4625 15.3167C48.5406 15.3167 49.4277 15.0034 50.1217 14.3729C50.8122 13.7444 51.159 12.8027 51.159 11.5456C51.159 10.3039 50.8215 9.37767 50.1497 8.76445C49.4749 8.15361 48.5778 7.84836 47.4625 7.84836C46.344 7.84836 45.4439 8.15887 44.7599 8.77704C44.0787 9.39533 43.7348 10.3268 43.7348 11.5762Z" fill="white"/>
</svg>
