<svg width="49" height="54" viewBox="0 0 49 54" fill="none" xmlns="http://www.w3.org/2000/svg">
<path d="M25.7187 0C12.9004 0 2.4494 11.3683 2.4494 25.3126C2.4494 26.1118 2.4494 26.8226 2.53113 27.6219L4.16406 27.4441C4.08234 26.7337 4.08234 26.0229 4.08234 25.3126C4.08234 12.3453 13.7982 1.77632 25.7187 1.77632C37.6393 1.77632 47.3551 12.3453 47.3551 25.3126C47.3551 38.0131 38.1292 48.4048 26.5352 48.8488L28.3316 46.8947L27.1886 45.6514L23.3511 49.8259L27.1886 54L28.3316 52.7567L26.3722 50.6252C39.2722 50.1811 49.3963 38.5461 48.9881 24.6022C48.5798 10.9242 38.2923 0 25.7187 0Z" fill="white"/>
<path d="M40.8234 10.658H11.4305V26.6449H40.8234V10.658ZM39.1905 24.8685H13.0635V12.4343H39.1905V24.8685Z" fill="white"/>
<path d="M26.127 22.2039C27.9234 22.2039 29.3928 20.6054 29.3928 18.6513C29.3928 16.6972 27.9234 15.0986 26.127 15.0986C24.331 15.0986 22.8611 16.6972 22.8611 18.6513C22.8611 20.6054 24.331 22.2039 26.127 22.2039ZM26.127 16.875C27.0252 16.875 27.7599 17.6742 27.7599 18.6513C27.7599 19.6283 27.0252 20.4276 26.127 20.4276C25.2288 20.4276 24.494 19.6283 24.494 18.6513C24.494 17.6742 25.2288 16.875 26.127 16.875Z" fill="white"/>
<path d="M16.3293 15.987H17.9623V14.2107H14.6964V17.7633H16.3293V15.987Z" fill="white"/>
<path d="M17.9623 21.3156H16.3293V19.5393H14.6964V23.092H17.9623V21.3156Z" fill="white"/>
<path d="M37.5575 19.5393H35.9246V21.3156H34.2916V23.092H37.5575V19.5393Z" fill="white"/>
<path d="M35.9246 17.7633H37.5575V14.2107H34.2916V15.987H35.9246V17.7633Z" fill="white"/>
<path d="M18.7787 17.7629H21.2282V19.5393H18.7787V17.7629Z" fill="white"/>
<path d="M31.0258 17.7629H33.4752V19.5393H31.0258V17.7629Z" fill="white"/>
<path d="M4.8988 38.1912H6.53174V40.8556H4.8988V38.1912Z" fill="white"/>
<path d="M40.8234 36.3253C40.8234 34.549 39.4356 33.0394 37.8027 33.0394C37.5575 33.0394 37.231 33.0394 36.9862 33.1278L27.1069 36.2364C27.0252 36.2364 26.8617 36.3253 26.7804 36.2364L24.494 35.7923C26.0452 34.8157 26.6169 32.6837 25.8005 30.9963C25.2288 29.8419 24.1675 29.1311 22.9428 29.1311H12.6553C12.247 29.1311 11.8388 29.22 11.4306 29.4867L9.79762 30.6412V29.3089H0V44.4076H9.79762V42.1872L17.8806 45.8288C18.3705 46.0951 19.0239 46.0951 19.5135 45.9177L38.6192 39.4339C39.9252 39.0787 40.8234 37.8353 40.8234 36.3253ZM8.16468 42.6313H1.63294V31.0852H4.89881V36.4142H6.53174V31.0852H8.16468V42.6313ZM19.1053 44.2298C18.9422 44.3187 18.697 44.3187 18.534 44.2298L9.79762 40.2331V32.6837L12.247 31.1741C12.3287 31.0852 12.4922 31.0852 12.6553 31.0852H22.8611C23.7593 31.0852 24.494 31.8845 24.494 32.8616C24.494 33.8386 23.7593 34.6379 22.8611 34.6379H17.1458V35.526L16.9828 36.4142L26.3722 38.1016C26.6987 38.1905 27.1069 38.1016 27.4334 38.0127L37.3127 34.9041C38.0475 34.6379 38.7822 35.1709 39.0274 35.9701C39.2722 36.7694 38.864 37.5686 38.1292 37.8353L19.1053 44.2298Z" fill="white"/>
</svg>
